<svg width="503" height="640" viewBox="0 0 503 640" fill="none" xmlns="http://www.w3.org/2000/svg">
<path d="M460.252 11.1575C473.269 18.5959 483.497 28.8239 490.935 41.841C498.373 54.3933 502.092 68.3403 502.092 83.6819L502.093 418.41C502.093 433.752 498.373 447.931 490.935 460.949C483.497 473.501 473.269 483.496 460.252 490.935C447.699 498.373 433.752 502.092 418.411 502.092L258.491 502.092L177.031 445.606L418.411 445.607C425.849 445.607 432.125 443.05 437.239 437.936C442.818 432.357 445.607 425.849 445.607 418.41L445.607 83.6814C445.607 76.2432 442.817 69.9672 437.239 64.8533C432.125 59.2747 425.849 56.4852 418.411 56.4852L83.6823 56.4846C76.244 56.4846 69.7351 59.274 64.1564 64.8527C59.0425 69.9666 56.4856 76.2433 56.4856 83.6817L56.4863 418.41C56.4863 425.849 59.0428 432.356 64.1566 437.935C67.4923 440.993 71.161 443.135 75.1615 444.365L158.412 502.091L83.683 502.092C68.3413 502.092 54.1609 498.373 41.1437 490.935C28.5916 483.496 18.5957 473.501 11.1573 460.949C3.71905 447.931 0.000448138 433.752 0.000405679 418.41L0.0002164 83.6812C0.000310039 68.3397 3.71963 54.3926 11.1579 41.8404C18.5963 28.8233 28.5921 18.5958 41.1444 11.1574C54.1615 3.71912 68.3407 -1.77105e-06 83.6823 -1.60115e-05L418.411 -0.000205291C433.752 -0.00017714 447.699 3.71914 460.252 11.1575ZM355.742 569.527C356.952 570.366 357.731 571.696 357.871 573.162L363.696 634.429C364.099 638.664 359.365 641.435 355.869 639.011L158.412 502.091L258.491 502.092L355.742 569.527ZM397.104 56.5942C401.149 56.5754 403.541 61.1188 401.237 64.4433L152.803 422.722C151.229 424.991 151.793 428.106 154.062 429.68L177.031 445.606L83.6821 445.607C80.6914 445.607 77.8516 445.192 75.1615 444.365L68.8568 439.994C66.5879 438.42 66.0239 435.306 67.5971 433.037L326.917 59.0583C327.846 57.718 329.371 56.9148 331.002 56.9071L397.104 56.5942Z" fill="url(#paint0_linear_382_45)"/>
<defs>
<linearGradient id="paint0_linear_382_45" x1="479.201" y1="479.551" x2="22.9882" y2="22.9804" gradientUnits="userSpaceOnUse">
<stop stop-color="#283952"/>
<stop offset="1" stop-color="#466CA3"/>
</linearGradient>
</defs>
</svg>
